<?xml version="1.0" encoding="utf-8"?>
<!-- Generator: Adobe Illustrator 17.0.0, SVG Export Plug-In . SVG Version: 6.00 Build 0)  -->
<!DOCTYPE svg PUBLIC "-//W3C//DTD SVG 1.1//EN" "http://www.w3.org/Graphics/SVG/1.1/DTD/svg11.dtd">
<svg version="1.1" id="图层_1" xmlns="http://www.w3.org/2000/svg" xmlns:xlink="http://www.w3.org/1999/xlink" x="0px" y="0px"
	 width="60px" height="60px" viewBox="0 0 60 60" enable-background="new 0 0 60 60" xml:space="preserve">
<path fill="#627088" d="M30.005,56.999C15.666,56.999,4,45.365,4,31.065S15.661,4.992,30,4.992
	c14.338,0,26.009,11.773,26.009,26.073C56.009,45.364,44.343,56.999,30.005,56.999z M30.012,8.985
	c-12.131,0-22.002,9.874-22.002,22.011c0,12.137,9.87,22.011,22.002,22.011s22.001-9.874,22.001-22.011
	C52.013,18.86,42.144,8.985,30.012,8.985z M7.719,20.075c-0.331,0-0.666-0.09-0.966-0.28c-2.979-1.887-4.757-5.099-4.757-8.594
	c0-5.625,4.63-10.201,10.319-10.201c4.157,0,7.888,2.445,9.507,6.228c0.386,0.902-0.04,1.942-0.953,2.323
	c-0.915,0.381-1.964-0.041-2.35-0.942c-1.057-2.469-3.492-4.065-6.205-4.065c-3.713,0-6.734,2.986-6.734,6.656
	c0,2.281,1.161,4.377,3.106,5.608c0.833,0.528,1.077,1.625,0.543,2.45C8.888,19.787,8.309,20.075,7.719,20.075z M52.282,20.075
	c-0.591,0-1.17-0.288-1.512-0.816c-0.534-0.825-0.291-1.921,0.543-2.449c1.944-1.231,3.105-3.327,3.105-5.608
	c0-3.67-3.02-6.656-6.734-6.656c-2.712,0-5.148,1.595-6.205,4.064c-0.385,0.901-1.437,1.323-2.35,0.942
	c-0.912-0.381-1.339-1.421-0.953-2.323c1.619-3.783,5.35-6.228,9.507-6.228c5.69,0,10.319,4.576,10.319,10.201
	c0,3.495-1.778,6.707-4.757,8.594C52.948,19.985,52.613,20.075,52.282,20.075z M9.931,59c-0.401,0-0.806-0.111-1.149-0.339
	c-0.833-0.551-0.992-1.583-0.356-2.304l5.155-5.712c0.635-0.723,1.825-0.862,2.658-0.308c0.833,0.551,0.992,1.583,0.356,2.304
	l-5.155,5.712C11.066,58.776,10.502,59,9.931,59z M48.092,59c-0.576,0-1.145-0.223-1.521-0.647l-4.189-4.712
	c-0.642-0.721-0.481-1.753,0.359-2.304c0.84-0.554,2.039-0.414,2.68,0.308l4.189,4.712c0.642,0.721,0.481,1.753-0.359,2.304
	C48.904,58.889,48.496,59,48.092,59z M20,32h8V19c0-1.04,0.861-2,2-2c1.138,0,2,0.96,2,2v17H20c-1.067-0.03-2-0.953-2-2
	C18.02,32.789,18.848,32,20,32z"/>
</svg>
